<?xml version="1.0" encoding="UTF-8"?>
<svg version="1.1" xmlns="http://www.w3.org/2000/svg" width="512" height="512">
<path d="M0 0 C0.61568848 0.49999512 1.23137695 0.99999023 1.86572266 1.51513672 C14.83406239 12.1255965 26.72101341 23.74650813 37 37 C37.78632813 37.969375 38.57265625 38.93875 39.3828125 39.9375 C46.4426089 48.78990927 52.34383259 58.20063177 58 68 C58.40105957 68.69077637 58.80211914 69.38155273 59.21533203 70.09326172 C73.15645882 94.38931692 81.36450961 121.48257018 86 149 C86.11859375 149.67369629 86.2371875 150.34739258 86.359375 151.04150391 C96.05271434 208.5524324 80.32880336 272.6744927 46.875 320.0625 C33.04410099 339.25604081 16.7874347 357.52115033 -2 372 C-2.51272461 372.40508789 -3.02544922 372.81017578 -3.55371094 373.22753906 C-52.83936706 412.03444307 -117.06298359 428.03075286 -179 420.875 C-222.16635823 415.16427556 -263.10732199 398.46270039 -297 371 C-297.58120605 370.53303711 -298.16241211 370.06607422 -298.76123047 369.58496094 C-313.23221458 357.8631787 -326.75589459 344.71608086 -337.7734375 329.67089844 C-338.98657566 328.01828746 -340.22538912 326.38775631 -341.46875 324.7578125 C-348.9677799 314.76997627 -355.08401437 303.9813346 -361 293 C-361.37898438 292.30100586 -361.75796875 291.60201172 -362.1484375 290.88183594 C-379.06822503 259.0936261 -386.48283647 221.70395916 -386.3125 185.9375 C-386.31067719 185.13529022 -386.30885437 184.33308044 -386.30697632 183.50656128 C-386.25497751 169.83189023 -385.47004932 156.47611812 -383 143 C-382.83902832 142.10958008 -382.67805664 141.21916016 -382.51220703 140.30175781 C-375.40143625 102.52792261 -359.46571423 66.70506128 -335 37 C-334.55221191 36.45069824 -334.10442383 35.90139648 -333.64306641 35.33544922 C-322.71130566 21.99467342 -310.73970396 9.47000226 -297 -1 C-296.36739258 -1.49790039 -295.73478516 -1.99580078 -295.08300781 -2.50878906 C-276.56046056 -17.06405916 -256.12881818 -28.84992833 -234 -37 C-233.17612793 -37.30486328 -232.35225586 -37.60972656 -231.50341797 -37.92382812 C-153.67097141 -66.25880202 -64.41174992 -52.5596004 0 0 Z " fill="#8EBF2A" transform="translate(405,71)"/>
<path d="M0 0 C1.1176698 -0.0060911 2.23533961 -0.01218221 3.38687819 -0.01845789 C7.13389168 -0.03511347 10.88056631 -0.03030825 14.62760925 -0.0255127 C17.31337655 -0.03285157 19.99911842 -0.04134446 22.68487549 -0.05117798 C29.22433495 -0.07222134 35.76370572 -0.07677344 42.30319504 -0.07499009 C47.62001499 -0.0736818 52.9368073 -0.07749004 58.25362206 -0.08491516 C59.7859024 -0.08701439 61.31818274 -0.08911199 62.85046309 -0.09120798 C63.61316033 -0.09225151 64.37585756 -0.09329504 65.16166683 -0.09437019 C79.58322503 -0.11326848 94.00473235 -0.11222376 108.42629781 -0.10540086 C121.61163018 -0.09982691 134.79676816 -0.12064517 147.98205511 -0.15376133 C161.5277639 -0.18751803 175.07337963 -0.20266412 188.61913127 -0.1980443 C196.22118392 -0.19580145 203.82305695 -0.20101555 211.42507362 -0.22593689 C217.89781294 -0.24697578 224.37027417 -0.25051667 230.84302501 -0.2316373 C234.14355601 -0.22249466 237.4434627 -0.22401398 240.74397278 -0.24199295 C244.3274276 -0.260165 247.90950662 -0.24744887 251.49291992 -0.22705078 C252.52873146 -0.23956863 253.56454301 -0.25208648 254.63174278 -0.26498365 C262.32807139 -0.17118721 268.13393028 1.79317149 273.79066974 7.1497941 C281.45207532 15.30650736 281.42456096 23.90391384 281.44084167 34.53112793 C281.45050031 36.01695535 281.46059405 37.50278001 281.47109985 38.98860168 C281.48901108 42.09781494 281.49462639 45.20677888 281.49284363 48.31604004 C281.49253973 52.26910456 281.53341697 56.22054072 281.58516026 60.17322063 C281.61879163 63.24224444 281.62459303 66.31088639 281.62301445 69.38007545 C281.62651722 70.83553468 281.63957342 72.29100787 281.66301155 73.74628258 C281.8043152 83.4288662 280.57784073 91.25131122 274.93693542 99.39440918 C267.54215665 106.70447626 260.02433429 107.69199057 249.98103333 107.66183472 C248.87490861 107.66636583 247.7687839 107.67089694 246.62914026 107.67556536 C242.92131211 107.68822944 239.21363047 107.68658768 235.50578308 107.68493652 C232.84795587 107.69092047 230.19014014 107.69766908 227.53231812 107.70529175 C221.06138802 107.72188834 214.59049436 107.72740067 208.11954476 107.7285165 C202.85897667 107.72946752 197.59842058 107.73358051 192.33785629 107.73991776 C177.4173542 107.75752577 162.49688085 107.7667572 147.57636829 107.76525681 C146.77238669 107.76517689 145.9684051 107.76509698 145.14006042 107.76501465 C144.33509531 107.76493289 143.5301302 107.76485113 142.70077221 107.76476689 C129.65382493 107.7639539 116.60699307 107.78309587 103.56007917 107.81129138 C90.15789529 107.84002577 76.75576769 107.8538314 63.35355222 107.85210383 C55.83147835 107.85144016 48.30952551 107.85692223 40.7874794 107.87845993 C34.38355048 107.89667896 27.97979747 107.90101316 21.57585384 107.88744108 C18.30994935 107.88091518 15.04445203 107.88295789 11.77856636 107.89814758 C8.23434407 107.9135642 4.69100778 107.90431434 1.14680481 107.8888855 C0.11975327 107.89917262 -0.90729827 107.90945975 -1.96547258 107.92005861 C-8.28927004 107.85923244 -12.7059523 106.7788169 -18.06306458 103.39440918 C-18.94993958 102.83753418 -19.83681458 102.28065918 -20.75056458 101.70690918 C-26.53814865 95.91932511 -29.16735117 89.03766528 -29.25593567 80.97033691 C-29.26411316 80.32271896 -29.27229065 79.67510101 -29.28071594 79.00785828 C-29.30552282 76.86458238 -29.32207969 74.72137284 -29.33650208 72.57800293 C-29.34182575 71.84302141 -29.34714943 71.10803989 -29.35263443 70.35078621 C-29.37935411 66.45542571 -29.39872697 62.56009703 -29.41316223 58.66467285 C-29.42646225 55.4550705 -29.45424201 52.24610986 -29.49519348 49.03674316 C-29.54478866 45.14931764 -29.56931647 41.26247082 -29.57638931 37.37474251 C-29.58306042 35.90087629 -29.59817334 34.42702087 -29.62228012 32.95333672 C-29.77131751 23.2856911 -29.20168693 14.86787262 -22.27799988 7.49302673 C-15.41159454 1.10995942 -9.1121063 -0.04656926 0 0 Z " fill="#565A5F" transform="translate(130.0630645751953,199.6055908203125)"/>
<path d="M0 0 C3.50623643 1.27276994 6.2215058 2.75254356 9.1875 5 C20.26452578 12.93108423 32.75185906 19.09207319 45 25 C44.04129953 31.06756482 42.78196055 36.95821566 41.125 42.875 C35.39225469 63.67361428 32.21914453 85.57068515 30 107 C29.2265625 107.14695312 28.453125 107.29390625 27.65625 107.4453125 C18.50527799 109.41594261 12.24169185 112.18329441 7.0625 120.1875 C0.27416746 131.85422745 3.53976222 140.8071334 3 157 C-20.76 157 -44.52 157 -69 157 C-69 111.49153386 -52.75189547 65.10530883 -25 29 C-24.31164062 28.10023437 -23.62328125 27.20046875 -22.9140625 26.2734375 C-16.57044474 18.17466859 -9.72327675 10.51130354 -2.3125 3.375 C-0.88435687 2.01378527 -0.88435687 2.01378527 0 0 Z " fill="#A0CF28" transform="translate(98,92)"/>
<path d="M0 0 C0.66 0 1.32 0 2 0 C3.4453125 1.46875 3.4453125 1.46875 5.125 3.5 C7.50783916 6.31741433 9.93024238 8.91972858 12.625 11.4375 C28.98569178 27.60795118 40.9202737 48.55388016 51 69 C51.57621094 70.16789062 52.15242188 71.33578125 52.74609375 72.5390625 C60.10058942 88.60335385 64.76206421 106.0481396 67.9375 123.375 C68.13674072 124.44121582 68.33598145 125.50743164 68.54125977 126.60595703 C70.27959435 136.84101114 70.47100258 146.42005159 71 157 C47.24 157 23.48 157 -1 157 C-1.33 147.1 -1.66 137.2 -2 127 C-7.3336582 116.3326836 -10.04403032 112.84084771 -20.53515625 108.796875 C-23.00990267 107.9967985 -25.44833037 107.48967414 -28 107 C-28.10546143 106.20529297 -28.21092285 105.41058594 -28.31958008 104.59179688 C-30.95079758 84.3157255 -30.95079758 84.3157255 -34.54638672 64.19580078 C-35.10624996 61.48567702 -35.64770378 58.77200491 -36.19140625 56.05859375 C-36.62666858 53.91387241 -37.06286745 51.76934093 -37.5 49.625 C-37.70165771 48.62557373 -37.90331543 47.62614746 -38.11108398 46.59643555 C-39.27508109 40.97941296 -40.66036801 35.5294832 -42.43164062 30.07177734 C-43 28 -43 28 -43 25 C-41.81148438 24.44054687 -40.62296875 23.88109375 -39.3984375 23.3046875 C-18.36018783 13.66832 -18.36018783 13.66832 0 0 Z " fill="#A0CF28" transform="translate(412,92)"/>
<path d="M0 0 C37.62 0 75.24 0 114 0 C114 7.46632314 113.35981319 14.38070111 112.375 21.75 C112.28830048 22.40117798 112.20160095 23.05235596 112.11227417 23.7232666 C109.35808803 44.15348471 104.9039562 64.2504828 99 84 C97.19982422 83.34644531 97.19982422 83.34644531 95.36328125 82.6796875 C63.63718602 71.28893463 33.74508497 65.6996068 0 63 C0 42.21 0 21.42 0 0 Z " fill="#A0CF28" transform="translate(261,307)"/>
<path d="M0 0 C37.62 0 75.24 0 114 0 C114 20.79 114 41.58 114 63 C106.6059375 63.5878125 106.6059375 63.5878125 99.0625 64.1875 C84.45337694 65.4561319 70.28545151 67.61713987 56 71 C55.14277344 71.19851563 54.28554687 71.39703125 53.40234375 71.6015625 C41.86037079 74.31094582 30.82892 78.03128475 19.78320312 82.32324219 C18.2036073 82.92272735 16.60282716 83.46572428 15 84 C10.19028388 70.11741028 7.44236895 55.67240881 4.8125 41.25 C4.68621216 40.5639267 4.55992432 39.87785339 4.42980957 39.17098999 C2.04248854 26.13321839 0 13.29188807 0 0 Z " fill="#A0CF28" transform="translate(137,307)"/>
<path d="M0 0 C0 33.99 0 67.98 0 103 C-19.85731727 103 -19.85731727 103 -29.4375 101.75 C-30.50315186 101.61505127 -31.56880371 101.48010254 -32.66674805 101.34106445 C-53.04751001 98.63660277 -76.87897849 94.10544557 -95 84 C-96.36336764 80.72685668 -95.82707988 78.68373101 -94.62890625 75.4296875 C-94.30615723 74.5425708 -93.9834082 73.6554541 -93.65087891 72.74145508 C-93.29171387 71.7955249 -92.93254883 70.84959473 -92.5625 69.875 C-92.19560059 68.89233154 -91.82870117 67.90966309 -91.45068359 66.8972168 C-74.74347705 22.74347705 -74.74347705 22.74347705 -61 9 C-49.60683686 5.31508255 -37.83324017 3.34732169 -26 1.6875 C-24.79690186 1.51621582 -23.59380371 1.34493164 -22.35424805 1.16845703 C-14.70214742 0.15464733 -7.88904695 0 0 0 Z " fill="#A0CF28" transform="translate(251,29)"/>
<path d="M0 0 C26.60534274 1.15675403 26.60534274 1.15675403 37.1875 3.3125 C38.27095703 3.51294922 39.35441406 3.71339844 40.47070312 3.91992188 C60.74439869 7.84347111 60.74439869 7.84347111 65.1875 13.25 C66.16814085 14.80698241 67.09890472 16.39566899 68 18 C68.67289062 19.12535156 69.34578125 20.25070313 70.0390625 21.41015625 C78.39131328 35.59494366 85.18639091 50.42463261 91 65.8125 C91.57911133 67.34293945 91.57911133 67.34293945 92.16992188 68.90429688 C93.89646103 73.58437318 95.45743537 78.0067099 96 83 C89.98243075 86.205621 84.00646843 88.48696159 77.5 90.5 C76.53384766 90.80260742 75.56769531 91.10521484 74.57226562 91.41699219 C66.44388125 93.92984262 58.29072101 96.09224269 50 98 C48.90429688 98.27585937 47.80859375 98.55171875 46.6796875 98.8359375 C39.48425581 100.55399566 32.35825065 101.49417701 25 102.1875 C23.68394775 102.31342529 23.68394775 102.31342529 22.34130859 102.44189453 C14.82262831 103.08240032 7.62412817 103 0 103 C0 69.01 0 35.02 0 0 Z " fill="#A0CF28" transform="translate(261,29)"/>
<path d="M0 0 C0 33.99 0 67.98 0 103 C-17.14638898 102.04742283 -33.34088967 100.71669845 -50 97 C-51.04542969 96.79761719 -52.09085938 96.59523438 -53.16796875 96.38671875 C-54.60076172 96.07154297 -54.60076172 96.07154297 -56.0625 95.75 C-56.87847656 95.57984375 -57.69445312 95.4096875 -58.53515625 95.234375 C-64.96890642 92.01240186 -68.51754791 84.86435804 -71.8125 78.75 C-72.23917969 77.9647998 -72.66585937 77.17959961 -73.10546875 76.37060547 C-74.42121483 73.92255868 -75.71529118 71.46446263 -77 69 C-77.38591309 68.26233398 -77.77182617 67.52466797 -78.16943359 66.76464844 C-83.46984017 56.48632851 -87.69728269 45.86296172 -91.625 35 C-92.07552734 33.7639502 -92.52605469 32.52790039 -92.99023438 31.25439453 C-93.6022168 29.51971924 -93.6022168 29.51971924 -94.2265625 27.75 C-94.59346191 26.71359375 -94.96036133 25.6771875 -95.33837891 24.609375 C-96 22 -96 22 -95 19 C-93.1809082 17.98852539 -93.1809082 17.98852539 -90.80078125 17.09765625 C-89.49318848 16.6013269 -89.49318848 16.6013269 -88.15917969 16.0949707 C-87.21977539 15.75425537 -86.28037109 15.41354004 -85.3125 15.0625 C-83.86665527 14.52919067 -83.86665527 14.52919067 -82.39160156 13.98510742 C-55.65506362 4.2462631 -28.3946899 0 0 0 Z " fill="#A0CF28" transform="translate(251,380)"/>
<path d="M0 0 C30.60830135 0 59.70933226 5.79458183 88.5 16.25 C89.48758301 16.60070557 89.48758301 16.60070557 90.49511719 16.95849609 C92.28125 17.640625 92.28125 17.640625 95 19 C96.77322164 24.31966493 93.66207753 29.51515597 91.8125 34.625 C91.47712723 35.55672028 91.47712723 35.55672028 91.13497925 36.50726318 C86.69502597 48.7754156 81.48720748 60.58622904 75.46289062 72.16699219 C74.50855211 74.01514707 73.57636229 75.87495807 72.66992188 77.74707031 C65.32406697 92.88177444 65.32406697 92.88177444 57.49365234 95.796875 C53.70546591 96.8619932 49.88823515 97.43074393 46 98 C43.94194169 98.36813535 41.88469048 98.74080197 39.828125 99.1171875 C26.47260461 101.43553388 13.68364233 102.31581788 0 103 C0 69.01 0 35.02 0 0 Z " fill="#A0CF28" transform="translate(261,380)"/>
<path d="M0 0 C1.1176698 -0.0060911 2.23533961 -0.01218221 3.38687819 -0.01845789 C7.13389168 -0.03511347 10.88056631 -0.03030825 14.62760925 -0.0255127 C17.31337655 -0.03285157 19.99911842 -0.04134446 22.68487549 -0.05117798 C29.22433495 -0.07222134 35.76370572 -0.07677344 42.30319504 -0.07499009 C47.62001499 -0.0736818 52.9368073 -0.07749004 58.25362206 -0.08491516 C59.7859024 -0.08701439 61.31818274 -0.08911199 62.85046309 -0.09120798 C63.61316033 -0.09225151 64.37585756 -0.09329504 65.16166683 -0.09437019 C79.58322503 -0.11326848 94.00473235 -0.11222376 108.42629781 -0.10540086 C121.61163018 -0.09982691 134.79676816 -0.12064517 147.98205511 -0.15376133 C161.5277639 -0.18751803 175.07337963 -0.20266412 188.61913127 -0.1980443 C196.22118392 -0.19580145 203.82305695 -0.20101555 211.42507362 -0.22593689 C217.89781294 -0.24697578 224.37027417 -0.25051667 230.84302501 -0.2316373 C234.14355601 -0.22249466 237.4434627 -0.22401398 240.74397278 -0.24199295 C244.3274276 -0.260165 247.90950662 -0.24744887 251.49291992 -0.22705078 C252.52873146 -0.23956863 253.56454301 -0.25208648 254.63174278 -0.26498365 C262.32807139 -0.17118721 268.13393028 1.79317149 273.79066974 7.1497941 C281.45207532 15.30650736 281.42456096 23.90391384 281.44084167 34.53112793 C281.45050031 36.01695535 281.46059405 37.50278001 281.47109985 38.98860168 C281.48901108 42.09781494 281.49462639 45.20677888 281.49284363 48.31604004 C281.49253973 52.26910456 281.53341697 56.22054072 281.58516026 60.17322063 C281.61879163 63.24224444 281.62459303 66.31088639 281.62301445 69.38007545 C281.62651722 70.83553468 281.63957342 72.29100787 281.66301155 73.74628258 C281.8043152 83.4288662 280.57784073 91.25131122 274.93693542 99.39440918 C267.54215665 106.70447626 260.02433429 107.69199057 249.98103333 107.66183472 C248.87490861 107.66636583 247.7687839 107.67089694 246.62914026 107.67556536 C242.92131211 107.68822944 239.21363047 107.68658768 235.50578308 107.68493652 C232.84795587 107.69092047 230.19014014 107.69766908 227.53231812 107.70529175 C221.06138802 107.72188834 214.59049436 107.72740067 208.11954476 107.7285165 C202.85897667 107.72946752 197.59842058 107.73358051 192.33785629 107.73991776 C177.4173542 107.75752577 162.49688085 107.7667572 147.57636829 107.76525681 C146.77238669 107.76517689 145.9684051 107.76509698 145.14006042 107.76501465 C144.33509531 107.76493289 143.5301302 107.76485113 142.70077221 107.76476689 C129.65382493 107.7639539 116.60699307 107.78309587 103.56007917 107.81129138 C90.15789529 107.84002577 76.75576769 107.8538314 63.35355222 107.85210383 C55.83147835 107.85144016 48.30952551 107.85692223 40.7874794 107.87845993 C34.38355048 107.89667896 27.97979747 107.90101316 21.57585384 107.88744108 C18.30994935 107.88091518 15.04445203 107.88295789 11.77856636 107.89814758 C8.23434407 107.9135642 4.69100778 107.90431434 1.14680481 107.8888855 C0.11975327 107.89917262 -0.90729827 107.90945975 -1.96547258 107.92005861 C-8.28927004 107.85923244 -12.7059523 106.7788169 -18.06306458 103.39440918 C-18.94993958 102.83753418 -19.83681458 102.28065918 -20.75056458 101.70690918 C-26.53814865 95.91932511 -29.16735117 89.03766528 -29.25593567 80.97033691 C-29.26411316 80.32271896 -29.27229065 79.67510101 -29.28071594 79.00785828 C-29.30552282 76.86458238 -29.32207969 74.72137284 -29.33650208 72.57800293 C-29.34182575 71.84302141 -29.34714943 71.10803989 -29.35263443 70.35078621 C-29.37935411 66.45542571 -29.39872697 62.56009703 -29.41316223 58.66467285 C-29.42646225 55.4550705 -29.45424201 52.24610986 -29.49519348 49.03674316 C-29.54478866 45.14931764 -29.56931647 41.26247082 -29.57638931 37.37474251 C-29.58306042 35.90087629 -29.59817334 34.42702087 -29.62228012 32.95333672 C-29.77131751 23.2856911 -29.20168693 14.86787262 -22.27799988 7.49302673 C-15.41159454 1.10995942 -9.1121063 -0.04656926 0 0 Z M-16.37556458 15.95690918 C-19.09812419 19.88949529 -19.19596663 22.93469002 -19.22419739 27.60656738 C-19.23380493 28.88832352 -19.24341248 30.17007965 -19.25331116 31.49067688 C-19.25815957 32.89217958 -19.2624383 34.29368436 -19.26618958 35.69519043 C-19.27194393 37.13384502 -19.27770163 38.57249961 -19.28346252 40.01115417 C-19.29396496 43.02815101 -19.29981238 46.04512125 -19.30329895 49.06213379 C-19.308778 52.91898235 -19.33279625 56.77547687 -19.3612709 60.63221455 C-19.37994075 63.60486358 -19.38510521 66.57742814 -19.38663483 69.55013084 C-19.38965278 70.97143677 -19.39765231 72.39274151 -19.41082001 73.81398964 C-19.42796733 75.80727724 -19.42414294 77.80071141 -19.41950989 79.79406738 C-19.42315552 80.92641312 -19.42680115 82.05875885 -19.43055725 83.22541809 C-18.85790927 88.16352015 -17.17517553 91.39079685 -13.50056458 94.70690918 C-10.21157577 96.98390143 -8.57608779 97.51979193 -4.6326561 97.52583694 C-3.22668313 97.53159866 -3.22668313 97.53159866 -1.79230666 97.53747678 C-0.23718663 97.53617705 -0.23718663 97.53617705 1.34934998 97.53485107 C2.44530102 97.5378222 3.54125206 97.54079332 4.67041373 97.54385448 C8.36766032 97.55257297 12.06487466 97.55405238 15.76213074 97.55554199 C18.40290481 97.56016795 21.04367591 97.56517145 23.68444824 97.57058716 C30.87665037 97.58418238 38.06884692 97.59019722 45.26105976 97.59459782 C49.75071392 97.59735857 54.24036592 97.60159565 58.73001862 97.60610199 C71.15669749 97.61829685 83.58337463 97.62859532 96.01005936 97.63197708 C97.20362107 97.63230643 97.20362107 97.63230643 98.42129515 97.63264243 C99.61774323 97.63296985 99.61774323 97.63296985 100.83836198 97.63330388 C102.45471589 97.63374735 104.0710698 97.63419391 105.68742371 97.63464355 C106.48919421 97.63486498 107.29096472 97.63508641 108.11703131 97.63531455 C121.10736161 97.63926219 134.09763579 97.65671418 147.08794442 97.68000308 C160.41992525 97.70371185 173.75187793 97.71617874 187.08388019 97.717345 C194.57127864 97.7182621 202.05860402 97.72402298 209.54598236 97.74216461 C215.92222424 97.7575593 222.29837047 97.76268988 228.67462739 97.75442651 C231.92804557 97.75051754 235.18123064 97.75309079 238.43463326 97.76548386 C241.96211791 97.77813461 245.48910555 97.77236354 249.0165863 97.76190186 C250.04441011 97.76995826 251.07223391 97.77801466 252.13120389 97.7863152 C257.48603877 97.74908211 261.33248096 97.44897557 265.93693542 94.39440918 C270.27301496 89.70675563 271.06013646 86.36303614 271.11393738 80.0904541 C271.12677261 78.78867722 271.13960785 77.48690033 271.15283203 76.14567566 C271.16099982 74.72208029 271.16844348 73.29848061 271.17521667 71.87487793 C271.1792922 71.15696894 271.18336773 70.43905994 271.18756676 69.69939613 C271.20841016 65.89941319 271.22271925 62.09946618 271.23210144 58.29943848 C271.24316176 54.38195422 271.27756146 50.46503862 271.31727314 46.54775524 C271.34346301 43.52878286 271.35179533 40.50994551 271.35538292 37.49086952 C271.36024289 36.0472155 271.3718402 34.60356727 271.39042091 33.16002464 C271.41485779 31.13567241 271.41142309 29.11104253 271.40690613 27.08654785 C271.41277237 25.93643723 271.41863861 24.7863266 271.42468262 23.60136414 C270.65443821 18.53698003 268.11006102 15.45308349 264.37443542 12.08190918 C260.98446985 9.73500993 258.4345883 9.26910084 254.41471386 9.2601881 C253.48237429 9.25573026 252.55003472 9.25127241 251.58944243 9.24667948 C250.0503645 9.24695603 250.0503645 9.24695603 248.48019409 9.24723816 C247.39155573 9.24356147 246.30291737 9.23988478 245.18128997 9.23609668 C241.51479143 9.22503858 237.84832121 9.22121242 234.18180847 9.21740723 C231.56059173 9.21114428 228.93937588 9.20449763 226.31816101 9.19749451 C218.43945322 9.1777337 210.56074415 9.16766502 202.68201777 9.15876672 C198.97245733 9.15438376 195.26289832 9.14901702 191.553339 9.14377785 C179.22355667 9.12676702 166.89377523 9.11227208 154.56398296 9.10502911 C151.36448859 9.1031192 148.16499422 9.10119886 144.96549988 9.09924316 C144.1702761 9.09875942 143.37505232 9.09827568 142.55573086 9.09777728 C129.66891007 9.08947405 116.78218202 9.06413156 103.89540174 9.03166249 C90.66735076 8.99860498 77.43934693 8.98058159 64.21125442 8.97738487 C56.78308823 8.9752187 49.35505734 8.96645446 41.92693138 8.94092369 C34.94117823 8.91696885 27.95567249 8.91338277 20.96988678 8.92368507 C18.40359246 8.92418215 15.83728641 8.91781144 13.27102852 8.90412903 C9.77193309 8.88651434 6.27372274 8.89346574 2.77462769 8.90666199 C1.7552679 8.89569274 0.73590811 8.8847235 -0.31434137 8.87342185 C-7.51652161 8.93915635 -11.43081348 10.4775904 -16.37556458 15.95690918 Z " fill="#3C3C3E" transform="translate(130.0630645751953,199.6055908203125)"/>
<path d="M0 0 C4.60613884 17.18416582 8.18730533 34.43344331 11 52 C11.28907227 53.78035645 11.28907227 53.78035645 11.58398438 55.59667969 C11.76767578 56.78938477 11.95136719 57.98208984 12.140625 59.2109375 C12.30594727 60.2736084 12.47126953 61.3362793 12.64160156 62.43115234 C13.09369925 66.93303522 13 71.47547331 13 76 C-24.29 76 -61.58 76 -100 76 C-100 57.19 -100 38.38 -100 19 C-88.12 18.01 -88.12 18.01 -76 17 C-71.38960129 16.45352935 -66.83186526 15.89164263 -62.25 15.1875 C-60.56028076 14.92876099 -60.56028076 14.92876099 -58.83642578 14.66479492 C-42.60044916 12.07870661 -27.56284213 7.78535767 -12.22216797 1.85864258 C-10.70453857 1.28279419 -10.70453857 1.28279419 -9.15625 0.6953125 C-8.25712891 0.34484863 -7.35800781 -0.00561523 -6.43164062 -0.36669922 C-3.82411401 -1.04580806 -2.50316975 -0.9040843 0 0 Z " fill="#A0CF28" transform="translate(361,123)"/>
<path d="M0 0 C3.75123032 0.66687586 7.23227109 1.68287956 10.83203125 2.92578125 C11.95230713 3.30847168 13.07258301 3.69116211 14.22680664 4.08544922 C15.41008545 4.49037598 16.59336426 4.89530273 17.8125 5.3125 C27.80049404 8.67686302 37.6674292 11.86109203 48 14 C49.25554687 14.26167969 50.51109375 14.52335938 51.8046875 14.79296875 C67.33756715 17.77984519 83.27378348 18.6575181 99 20 C99 38.81 99 57.62 99 77 C61.71 77 24.42 77 -14 77 C-14 70.47618214 -13.9339678 65.33471082 -12.8984375 59.09765625 C-12.72300919 58.02885475 -12.72300919 58.02885475 -12.54403687 56.9384613 C-12.16381479 54.64476782 -11.77046099 52.35361158 -11.375 50.0625 C-11.24194458 49.2772998 -11.10888916 48.49209961 -10.97180176 47.68310547 C-9.1417497 36.90084362 -7.10975282 26.17946994 -4.75 15.5 C-4.38140869 13.82949585 -4.38140869 13.82949585 -4.00537109 12.12524414 C-2.11869449 3.88614951 -2.11869449 3.88614951 0 0 Z " fill="#A0CF28" transform="translate(152,122)"/>
<path d="M0 0 C3.63 0 7.26 0 11 0 C11.32798584 0.99443115 11.65597168 1.9888623 11.99389648 3.01342773 C13.20783378 6.69135211 14.42569899 10.3679656 15.64477539 14.04418945 C16.1725472 15.63758243 16.69924306 17.2313322 17.22485352 18.82543945 C17.97912709 21.11243105 18.73721989 23.39812517 19.49609375 25.68359375 C19.73154404 26.40026718 19.96699432 27.11694061 20.20957947 27.85533142 C21.13258873 31.19092096 21.13258873 31.19092096 23 34 C25.79418622 26.77257977 28.11112543 19.45791656 30.2487793 12.01586914 C31.40946903 7.97625518 32.63856152 3.97814821 34 0 C37.96 0 41.92 0 46 0 C49.63 11.22 53.26 22.44 57 34 C59.52069221 29.07669317 59.52069221 29.07669317 61.24609375 24.08203125 C61.53963745 23.04357056 61.53963745 23.04357056 61.83911133 21.98413086 C62.03657959 21.26749268 62.23404785 20.55085449 62.4375 19.8125 C64.34759958 13.08594465 66.51271048 6.54065022 69 0 C72.63 0 76.26 0 80 0 C79.65743164 1.02246826 79.31486328 2.04493652 78.96191406 3.09838867 C77.67060695 6.95397636 76.38140073 10.81026397 75.09277344 14.66674805 C74.53864364 16.32416117 73.98397184 17.9813932 73.42871094 19.63842773 C70.16106276 29.39123687 66.97632302 39.15357214 64 49 C59.71 49 55.42 49 51 49 C49.57007953 44.78439669 48.14608199 40.56685358 46.72753906 36.34741211 C46.24413754 34.91229357 45.75912183 33.47771771 45.27246094 32.04370117 C44.57321879 29.98236386 43.87980523 27.91914458 43.1875 25.85546875 C42.76855469 24.61434326 42.34960938 23.37321777 41.91796875 22.09448242 C41 19 41 19 41 16 C40.34 16 39.68 16 39 16 C38.75507813 17.22589844 38.51015625 18.45179688 38.2578125 19.71484375 C36.90335629 25.8098967 34.8890194 31.65921699 32.875 37.5625 C32.50246094 38.66658203 32.12992188 39.77066406 31.74609375 40.90820312 C30.83485692 43.60686605 29.91800356 46.3036314 29 49 C24.71 49 20.42 49 16 49 C15.20335937 46.36451172 15.20335937 46.36451172 14.390625 43.67578125 C11.65868667 34.79698167 8.70141738 25.99525241 5.75 17.1875 C5.1899626 15.51241711 4.63006585 13.8372872 4.0703125 12.16210938 C2.71515864 8.1075302 1.35811639 4.05358776 0 0 Z " fill="#F9F9F9" transform="translate(216,229)"/>
<path d="M0 0 C3.63 0 7.26 0 11 0 C14.63 10.89 18.26 21.78 22 33 C24.16947229 29.74579156 25.16084987 26.85741772 26.3828125 23.14453125 C26.60194305 22.48289474 26.82107361 21.82125824 27.04684448 21.13957214 C27.74380979 19.03192179 28.43447773 16.92226898 29.125 14.8125 C29.59724213 13.38072272 30.06989367 11.9490804 30.54296875 10.51757812 C31.70006236 7.01327077 32.85151826 3.50714052 34 0 C37.63 0 41.26 0 45 0 C48.06901329 7.45134307 50.73822573 14.96971502 53.25 22.625 C54.4875 26.37875 55.725 30.1325 57 34 C60.96 22.78 64.92 11.56 69 0 C72.3 0 75.6 0 79 0 C77.68863329 6.41894308 75.94416644 12.46373242 73.7421875 18.62890625 C73.43427277 19.50401352 73.12635803 20.37912079 72.80911255 21.28074646 C71.83592261 24.04307064 70.85559529 26.80279711 69.875 29.5625 C69.2091596 31.44839978 68.54379051 33.33446604 67.87890625 35.22070312 C66.25804319 39.81574344 64.63077929 44.40847009 63 49 C59.04 49 55.08 49 51 49 C50.55346069 47.69796631 50.55346069 47.69796631 50.09790039 46.36962891 C48.99386941 43.15261068 47.88859515 39.93602529 46.7824707 36.71972656 C46.30378005 35.32699486 45.82558718 33.93409196 45.34790039 32.54101562 C44.66162486 30.53991315 43.97356781 28.53943099 43.28515625 26.5390625 C42.87144775 25.33459473 42.45773926 24.13012695 42.03149414 22.88916016 C41.10335065 20.10633658 41.10335065 20.10633658 40 18 C36.49745315 25.90397741 33.61294877 33.89385732 30.96826172 42.11865234 C29.0964068 47.9035932 29.0964068 47.9035932 28 49 C26.14712498 49.07226502 24.29166122 49.0838122 22.4375 49.0625 C21.42558594 49.05347656 20.41367188 49.04445313 19.37109375 49.03515625 C18.19740234 49.01775391 18.19740234 49.01775391 17 49 C13.35469475 40.31379025 10.25978975 31.43301151 7.14404297 22.54736328 C6.24185708 19.97679869 5.33398457 17.40828763 4.42578125 14.83984375 C3.85122018 13.2058495 3.27698914 11.57173915 2.703125 9.9375 C2.43131409 9.16986328 2.15950317 8.40222656 1.87945557 7.61132812 C0 2.22929952 0 2.22929952 0 0 Z " fill="#F9F9FA" transform="translate(133,229)"/>
<path d="M0 0 C3.3 0 6.6 0 10 0 C13.96 11.22 17.92 22.44 22 34 C25.57834591 23.18577333 25.57834591 23.18577333 29.15014648 12.36938477 C29.59855748 11.01831288 30.04719116 9.66731488 30.49609375 8.31640625 C30.72848755 7.60899292 30.96088135 6.90157959 31.20031738 6.17272949 C32.8859282 1.1140718 32.8859282 1.1140718 34 0 C37.63 0 41.26 0 45 0 C48.63 10.89 52.26 21.78 56 33 C58.16947229 29.74579156 59.16084987 26.85741772 60.3828125 23.14453125 C60.60194305 22.48289474 60.82107361 21.82125824 61.04684448 21.13957214 C61.74380979 19.03192179 62.43447773 16.92226898 63.125 14.8125 C63.59724213 13.38072272 64.06989367 11.9490804 64.54296875 10.51757812 C65.70006236 7.01327077 66.85151826 3.50714052 68 0 C71.63 0 75.26 0 79 0 C76.5390625 7.3828125 74.078125 14.765625 71.6171875 22.1484375 C71.35151978 22.94560181 71.08585205 23.74276611 70.81213379 24.56408691 C70.28314651 26.15072448 69.75377121 27.73723274 69.22399902 29.3236084 C68.05759586 32.81765926 66.89505064 36.31270092 65.75195312 39.81445312 C65.39552734 40.90177734 65.03910156 41.98910156 64.671875 43.109375 C64.36862305 44.04233398 64.06537109 44.97529297 63.75292969 45.93652344 C63 48 63 48 62 49 C60.14712498 49.07226502 58.29166122 49.0838122 56.4375 49.0625 C55.42558594 49.05347656 54.41367187 49.04445313 53.37109375 49.03515625 C52.19740234 49.01775391 52.19740234 49.01775391 51 49 C48.08313892 41.84917569 45.36895534 34.63966776 42.75 27.375 C40.89375 22.239375 40.89375 22.239375 39 17 C33.555 32.84 33.555 32.84 28 49 C24.04 49 20.08 49 16 49 C14.03609274 43.47053382 12.07915544 37.93866711 10.12841797 32.40454102 C9.46492765 30.5252975 8.79959346 28.64670387 8.13232422 26.76879883 C7.16920032 24.05722355 6.21290436 21.34331949 5.2578125 18.62890625 C4.96190216 17.80040665 4.66599182 16.97190704 4.3611145 16.11830139 C2.49734819 10.79490588 1.12921449 5.52733532 0 0 Z " fill="#F9FAFA" transform="translate(300,229)"/>
<path d="M0 0 C8.87851519 2.53671862 16.86104571 6.72988817 25 11 C25.65419922 11.33773437 26.30839844 11.67546875 26.98242188 12.0234375 C41.09400629 19.35634541 53.89495712 28.71264726 66 39 C64.59513559 42.42841829 63.15915117 43.85374856 59.9921875 45.734375 C59.17717773 46.22260742 58.36216797 46.71083984 57.52246094 47.21386719 C56.64879883 47.72079102 55.77513672 48.22771484 54.875 48.75 C53.54130371 49.53745605 53.54130371 49.53745605 52.18066406 50.34082031 C44.30236168 54.93954377 36.23766518 59.08825955 28 63 C25.05360709 60.05360709 24.33178321 56.31944389 23.0625 52.4375 C17.41669149 35.79545019 10.55418876 19.39010789 1.36328125 4.37890625 C0 2 0 2 0 0 Z " fill="#A0CF28" transform="translate(339,45)"/>
<path d="M0 0 C6.87726272 2.55360954 13.1912256 5.57687903 19.5 9.3125 C20.32153564 9.79307861 21.14307129 10.27365723 21.98950195 10.76879883 C27.86744754 14.24136369 33.54295847 17.88968337 39 22 C37.90869283 25.27392152 37.31530727 25.80547545 34.67578125 27.8203125 C33.98427979 28.35100342 33.29277832 28.88169434 32.58032227 29.4284668 C31.83194092 29.98832275 31.08355957 30.54817871 30.3125 31.125 C29.54156006 31.70612549 28.77062012 32.28725098 27.97631836 32.88598633 C12.08411379 44.74571816 -6.02835265 56.7608124 -25 63 C-25.66 62.67 -26.32 62.34 -27 62 C-26.68361572 61.4237085 -26.36723145 60.84741699 -26.04125977 60.25366211 C-18.64891966 46.692348 -12.32957147 33.08233598 -6.97558594 18.59667969 C-5.66036262 15.09600021 -4.26338004 11.63043662 -2.85644531 8.16577148 C-1.7936047 5.47806936 -0.8701993 2.75563112 0 0 Z " fill="#A0CF28" transform="translate(366,404)"/>
<path d="M0 0 C2 1 2 1 2.67797852 2.8215332 C2.88865967 3.61906006 3.09934082 4.41658691 3.31640625 5.23828125 C8.9763898 25.16665557 17.9648042 43.95409087 28 62 C26 63 26 63 24.20678711 62.44604492 C23.4875708 62.12740479 22.76835449 61.80876465 22.02734375 61.48046875 C21.21885986 61.12299561 20.41037598 60.76552246 19.57739258 60.3972168 C18.70622803 59.99801025 17.83506348 59.59880371 16.9375 59.1875 C16.03862061 58.77733643 15.13974121 58.36717285 14.21362305 57.94458008 C-4.69616256 49.14425036 -22.01219661 37.35590455 -38 24 C-36.85393299 20.56179896 -36.25862853 20.23072813 -33.30859375 18.36328125 C-32.14928345 17.62621948 -32.14928345 17.62621948 -30.96655273 16.87426758 C-30.13196533 16.35888428 -29.29737793 15.84350098 -28.4375 15.3125 C-27.58937744 14.78229248 -26.74125488 14.25208496 -25.86743164 13.70581055 C-18.15041306 8.9529448 -10.19305148 4.85866296 -2 1 C-1.34 0.67 -0.68 0.34 0 0 Z " fill="#A0CF28" transform="translate(145,404)"/>
<path d="M0 0 C-1.39944898 3.8636961 -3.2443323 7.34079653 -5.22387695 10.92504883 C-14.29555935 27.45262325 -20.94077163 45.17311233 -27 63 C-40.02845235 57.55173811 -53.98761809 50.9475603 -65 42 C-65.495 40.515 -65.495 40.515 -66 39 C-18.2480315 0 -18.2480315 0 0 0 Z " fill="#A0CF28" transform="translate(173,45)"/>
</svg>
