<?xml version="1.0" encoding="UTF-8"?>
<svg version="1.1" xmlns="http://www.w3.org/2000/svg" width="512" height="512">
<path d="M0 0 C1.42187705 1.19894413 2.81616127 2.43106397 4.1875 3.6875 C5.09113281 4.51121094 5.99476563 5.33492187 6.92578125 6.18359375 C19.84477653 18.50821035 30.38268704 36.02405535 31.3223877 54.31271362 C31.35266407 57.10879894 31.33531627 59.89941069 31.29296875 62.6953125 C31.28154846 64.14272827 31.28154846 64.14272827 31.26989746 65.61938477 C31.25020143 67.97561359 31.22257501 70.33145849 31.1875 72.6875 C31.96344513 72.67861755 32.73939026 72.66973511 33.53884888 72.6605835 C40.86558449 72.58030335 48.19210566 72.51946794 55.51916695 72.48025131 C59.28575591 72.45941146 63.05198024 72.43116092 66.81835938 72.38574219 C70.45586587 72.34215402 74.09302253 72.31833581 77.73077011 72.30799103 C79.11582824 72.30062274 80.50086807 72.28623395 81.88577652 72.26457977 C94.09307789 72.0813683 94.09307789 72.0813683 97.83544922 74.39941406 C102.03561698 78.4853568 104.59375191 81.42977397 105.28857422 87.35546875 C105.4359906 88.5986084 105.58340698 89.84174805 105.73529053 91.12255859 C105.88961033 92.6438465 106.03999674 94.16553604 106.1875 95.6875 C106.27555153 96.58277405 106.36360306 97.4780481 106.45432281 98.40045166 C107.21464443 106.26223955 107.89432001 114.13059388 108.5703125 122 C108.79139163 124.54396834 109.01274015 127.08791329 109.23434448 129.63183594 C109.69562272 134.9368035 110.1543346 140.24198359 110.61083984 145.54736328 C111.13751865 151.6679127 111.66881539 157.78804788 112.20260537 163.90798092 C112.71869671 169.82592478 113.23181852 175.74412307 113.74355698 181.66244507 C113.96056102 184.16952486 114.17826041 186.67654457 114.3966713 189.1835022 C114.70076016 192.67941158 115.00148271 196.17559442 115.30126953 199.671875 C115.43681747 201.21952797 115.43681747 201.21952797 115.57510376 202.79844666 C115.97003764 207.4434966 116.29934085 212.0201317 116.1875 216.6875 C117.28917511 216.67861755 118.39085022 216.66973511 119.52590942 216.6605835 C129.91358075 216.57945907 140.30118772 216.51951599 150.68910408 216.48025131 C156.02952412 216.4593862 161.3696882 216.43108788 166.70996094 216.38574219 C171.86467883 216.34224654 177.01915068 216.3183548 182.17403793 216.30799103 C184.13962552 216.30060637 186.10519981 216.2861858 188.07068253 216.26457977 C190.82622513 216.23549647 193.58075412 216.23154607 196.33642578 216.23339844 C197.55239189 216.21182678 197.55239189 216.21182678 198.79292297 216.18981934 C204.04879418 216.22799123 207.08474297 217.11749922 211.1875 220.6875 C214.87688485 225.27151459 215.76713568 228.80953307 215.69543457 234.55487061 C215.70479451 235.71578936 215.70479451 235.71578936 215.71434355 236.90016103 C215.73025222 239.48420966 215.71767787 242.06731216 215.70507812 244.65136719 C215.71050038 246.50792998 215.71762362 248.36448847 215.72631836 250.22103882 C215.74454739 255.25849178 215.73748452 260.29561686 215.72480202 265.33307552 C215.71466617 270.61083286 215.72406989 275.88856235 215.73034668 281.1663208 C215.73762392 290.03345774 215.72803599 298.90046142 215.70898438 307.76757812 C215.68724237 318.00478027 215.69424731 328.24166342 215.71629 338.47885776 C215.73447384 347.27739137 215.73698692 356.07582923 215.72653532 364.87437558 C215.72031334 370.12509206 215.71942853 375.37565892 215.73268127 380.62636566 C215.7442816 385.56769769 215.7361378 390.50862108 215.71310425 395.44990921 C215.70783829 397.25822142 215.70929451 399.06656832 215.71815491 400.87486649 C215.77058464 412.66734977 215.35470945 423.09369493 206.890625 432.15625 C200.26469676 438.11350658 193.20992513 440.9342664 184.27705002 440.94476891 C183.60283856 440.94827498 182.92862711 440.95178105 182.23398501 440.95539337 C179.97644356 440.96469184 177.71916096 440.95978814 175.46160889 440.95492554 C173.8260096 440.95866259 172.1904121 440.96326433 170.55481744 440.96865618 C166.06123439 440.98089491 161.56772574 440.98062468 157.07412982 440.97826743 C152.22736128 440.97785948 147.38061666 440.98889632 142.53385925 440.99838257 C133.03828401 441.01499849 123.5427336 441.02049239 114.04714504 441.02160732 C106.32854811 441.02255755 98.60995938 441.02666656 90.89136505 441.03300858 C69.00846764 441.05062285 47.12558984 441.05984719 25.24268529 441.05834763 C23.4729589 441.05822776 23.4729589 441.05822776 21.66748047 441.05810547 C20.48622252 441.05802371 19.30496457 441.05794195 18.08791092 441.05785771 C-1.05560389 441.05704483 -20.19904002 441.07618257 -39.34253207 441.1043822 C-58.99821162 441.13310787 -78.65385279 441.14692266 -98.30955386 441.14519465 C-109.34500625 441.14453062 -120.38037615 441.15002844 -131.41580963 441.17155075 C-140.81190055 441.18975837 -150.20787161 441.19411332 -159.60397252 441.1805319 C-164.3971177 441.17400008 -169.19003288 441.17389284 -173.9831562 441.1912384 C-178.37401768 441.20696467 -182.76446672 441.20411006 -187.15531811 441.18667014 C-188.74077237 441.18359926 -190.32625737 441.18723598 -191.91167536 441.19839029 C-202.95906893 441.2709454 -212.82106866 440.4055016 -221.21484375 432.5078125 C-228.86365412 423.793031 -231.24919452 414.86935906 -230.54396057 403.4188385 C-230.3143294 400.45785765 -230.04808208 397.50088064 -229.77954102 394.54321289 C-229.6363202 392.84883819 -229.49434629 391.15435773 -229.3534708 389.45978642 C-229.03390661 385.65148806 -228.70486447 381.84415062 -228.36940384 378.03722 C-227.77029872 371.23370548 -227.19437454 364.42829626 -226.61862183 357.62277222 C-225.34108366 342.56740515 -224.03631149 327.51445481 -222.7278831 312.46174884 C-222.33586411 307.95127502 -221.94454602 303.44074056 -221.55337715 298.93019295 C-220.25488827 283.95821927 -218.95482176 268.98638384 -217.65264242 254.01473068 C-217.58317618 253.21604876 -217.51370995 252.41736683 -217.44213867 251.59448242 C-217.37258504 250.79479965 -217.30303141 249.99511688 -217.2313701 249.1712013 C-216.09809952 236.14042857 -214.96873198 223.1093208 -213.84106927 210.07806169 C-212.67547691 196.60901522 -211.50697149 183.14022417 -210.33545691 169.67169148 C-209.68079232 162.14453538 -209.02729677 154.61728222 -208.37696648 147.08975029 C-207.82523871 140.70378772 -207.27079031 134.31806845 -206.71288817 127.93264221 C-206.42915312 124.68429887 -206.1470541 121.4358287 -205.86754608 118.18711853 C-202.6870439 81.24593726 -202.6870439 81.24593726 -197.4453125 75.921875 C-193.4997498 72.93910511 -190.5193389 72.44067264 -185.57519531 72.46044922 C-183.68368744 72.46067581 -183.68368744 72.46067581 -181.75396729 72.46090698 C-180.38285158 72.47111944 -179.01173749 72.48155142 -177.640625 72.4921875 C-176.23386842 72.49591943 -174.82710923 72.49876555 -173.42034912 72.50076294 C-169.72463761 72.50838524 -166.02908425 72.52802155 -162.33343506 72.5501709 C-158.55955138 72.57065964 -154.78564206 72.57977112 -151.01171875 72.58984375 C-143.61190721 72.61126888 -136.2122258 72.64538774 -128.8125 72.6875 C-128.82428284 71.79464043 -128.82428284 71.79464043 -128.83630371 70.88374329 C-128.86777197 68.14778078 -128.88708869 65.41185654 -128.90625 62.67578125 C-128.91881836 61.73963989 -128.93138672 60.80349854 -128.94433594 59.83898926 C-129.03816134 41.93788345 -121.44368033 25.11874395 -109.8125 11.6875 C-108.91724609 10.49833984 -108.91724609 10.49833984 -108.00390625 9.28515625 C-99.80385931 -0.43504199 -88.55237258 -6.85794315 -76.8125 -11.3125 C-75.70132813 -11.745625 -74.59015625 -12.17875 -73.4453125 -12.625 C-48.83411721 -20.66130867 -20.61845553 -15.28926471 0 0 Z M-94.5625 19.875 C-108.65523724 35.02205674 -112.8125 52.46898546 -112.8125 72.6875 C-70.5725 72.6875 -28.3325 72.6875 15.1875 72.6875 C13.94962006 49.16778122 10.11605811 32.51819181 -7.1875 16.4375 C-33.56767748 -5.96758224 -69.50342548 -2.9322222 -94.5625 19.875 Z " fill="#E53935" transform="translate(264.8125,39.3125)"/>
<path d="M0 0 C1.23965488 -0.00551503 1.23965488 -0.00551503 2.50435328 -0.01114148 C5.28950912 -0.02220499 8.07462769 -0.02602667 10.85980225 -0.02983093 C12.85033793 -0.03609357 14.84087243 -0.04274019 16.83140564 -0.04974365 C22.25093465 -0.06717193 27.67045482 -0.07771038 33.09000492 -0.08594918 C36.47409532 -0.09109543 39.85818297 -0.09717133 43.24227142 -0.10346031 C53.8248857 -0.12251743 64.40749298 -0.13674749 74.99012113 -0.14507228 C87.21599239 -0.1548478 99.44168274 -0.18117346 111.66749024 -0.22157317 C121.11043525 -0.25170882 130.55332832 -0.26653873 139.99632049 -0.26985329 C145.63935471 -0.27220668 151.28219578 -0.28120471 156.92517853 -0.30631447 C162.2340962 -0.32955551 167.54269302 -0.33384434 172.85164833 -0.32355309 C174.80033496 -0.32305665 176.74903717 -0.32940871 178.6976757 -0.34310913 C181.35832558 -0.36076894 184.01781662 -0.35375124 186.6784668 -0.34057617 C187.44948801 -0.35154542 188.22050923 -0.36251466 189.01489472 -0.37381631 C194.21162607 -0.31169598 197.16117992 0.7630238 201.09320068 4.14717102 C204.9075425 8.63710594 205.67265847 12.2834586 205.60113525 18.01454163 C205.60737522 18.78848747 205.61361518 19.5624333 205.62004423 20.35983205 C205.63595291 22.94388068 205.62337856 25.52698319 205.61077881 28.11103821 C205.61620106 29.967601 205.6233243 31.82415949 205.63201904 33.68070984 C205.65024807 38.7181628 205.6431852 43.75528788 205.6305027 48.79274654 C205.62036686 54.07050388 205.62977057 59.34823337 205.63604736 64.62599182 C205.64332461 73.49312876 205.63373668 82.36013244 205.61468506 91.22724915 C205.59294305 101.46445129 205.599948 111.70133444 205.62199068 121.93852878 C205.64017452 130.73706239 205.64268761 139.53550025 205.632236 148.3340466 C205.62601402 153.58476308 205.62512921 158.83532994 205.63838196 164.08603668 C205.64998229 169.02736871 205.64183848 173.9682921 205.61880493 178.90958023 C205.61353898 180.71789244 205.6149952 182.52623934 205.62385559 184.33453751 C205.67628532 196.12702079 205.26041014 206.55336595 196.79632568 215.61592102 C190.01926525 221.70905793 182.90758796 224.39059249 173.78855896 224.41459656 C173.07516084 224.41912767 172.36176272 224.42365878 171.62674648 224.4283272 C169.24790338 224.44093809 166.8692902 224.439353 164.49041748 224.43769836 C162.78001615 224.4436857 161.06961751 224.45049172 159.35922241 224.45805359 C154.7206771 224.4757002 150.08220561 224.48040841 145.44362998 224.48168516 C142.54325645 224.48310811 139.64290161 224.48738044 136.74253273 224.4926796 C126.61730384 224.51117565 116.49212755 224.51935076 106.36688232 224.51777649 C96.93969465 224.5165753 87.51273601 224.53767429 78.08560628 224.56926382 C69.98264069 224.59544526 61.87974982 224.606143 53.77674228 224.60486567 C48.94130161 224.60435657 44.10606453 224.61001076 39.27066612 224.63122177 C34.72087052 224.65063557 30.17147204 224.65070722 25.62166214 224.63618851 C23.95643468 224.63410318 22.29118216 224.63878479 20.62599754 224.65090942 C4.5842769 224.76010315 4.5842769 224.76010315 -2.90679932 220.14717102 C-4.10369385 219.47814758 -4.10369385 219.47814758 -5.32476807 218.79560852 C-12.46429472 213.65767102 -16.53322688 206.54539454 -18.90679932 198.14717102 C-19.0926029 195.51688 -19.18575184 192.99446307 -19.17422485 190.36677551 C-19.17875597 189.60225807 -19.18328708 188.83774062 -19.1879555 188.05005598 C-19.20057603 185.49838115 -19.19898068 182.9469204 -19.19732666 180.3952179 C-19.20331324 178.56172411 -19.21011908 176.72823284 -19.21768188 174.89474487 C-19.23533242 169.9217019 -19.24003677 164.94872778 -19.24131346 159.97565651 C-19.24273574 156.86826487 -19.24700673 153.76089071 -19.25230789 150.65350342 C-19.27080253 139.81202585 -19.2789789 128.97059744 -19.27740479 118.12910461 C-19.27620239 108.02362738 -19.29732541 97.91836338 -19.32889211 87.81294012 C-19.35503607 79.13423072 -19.36577292 70.45559108 -19.36449397 61.77684259 C-19.36398393 56.59441788 -19.3696905 51.41218285 -19.39085007 46.22979736 C-19.41020163 41.3574544 -19.41037804 36.48548275 -19.3958168 31.61312675 C-19.39372402 29.82569779 -19.39845749 28.03824576 -19.41053772 26.2508564 C-19.42596979 23.80932261 -19.41669663 21.36907258 -19.40127563 18.92756653 C-19.41156276 18.22152896 -19.42184989 17.5154914 -19.43244874 16.78805876 C-19.36287363 11.79820829 -18.00310032 9.00565849 -14.90679932 5.14717102 C-9.76625708 0.6185981 -6.70003736 -0.00158375 0 0 Z " fill="#FABF2C" transform="translate(274.90679931640625,255.8528289794922)"/>
<path d="M0 0 C72.27 0 144.54 0 219 0 C219.33 12.54 219.66 25.08 220 38 C224.77789154 49.4669397 227.38567271 55.51696543 238 61 C241.30392016 62.29904008 241.30392016 62.29904008 244 63 C244 63.33 244 63.66 244 64 C215.22753439 64.09347787 186.45509157 64.16399624 157.68250465 64.20724869 C144.32262308 64.22786613 130.96284726 64.25597128 117.60302734 64.30175781 C105.95741791 64.34165038 94.31187686 64.36743876 82.666201 64.37635398 C76.5009797 64.38156456 70.335954 64.39379473 64.17079544 64.42292023 C58.36452339 64.4501273 52.55852701 64.45843417 46.75219727 64.45243073 C44.62458166 64.45352858 42.49695657 64.46145067 40.36939621 64.4768219 C15.97599176 64.64437287 15.97599176 64.64437287 6.59765625 55.8203125 C-0.9400798 47.23208512 -3.39630561 38.39541443 -2.79296875 27.109375 C-2.60509121 24.65514258 -2.40301439 22.20196009 -2.1875 19.75 C-2.09146484 18.50992187 -1.99542969 17.26984375 -1.89648438 15.9921875 C-1.46346715 10.5867376 -0.89300356 5.35802134 0 0 Z " fill="#C62828" transform="translate(37,416)"/>
<path d="M0 0 C1.42187705 1.19894413 2.81616127 2.43106397 4.1875 3.6875 C5.09113281 4.51121094 5.99476563 5.33492187 6.92578125 6.18359375 C21.42978801 20.02029844 30.87685407 38.62939806 31.66657352 58.85167885 C31.7621217 63.31066418 31.76873731 67.76674867 31.75390625 72.2265625 C31.75915352 74.16613053 31.76543399 76.10569601 31.77268982 78.04525757 C31.783018 82.07765871 31.77863434 86.10970514 31.76391602 90.14208984 C31.74660728 95.30603406 31.77041096 100.46887804 31.80540562 105.63269997 C31.82734796 109.62359973 31.82594804 113.61423382 31.8176403 117.60517502 C31.81682159 119.51015823 31.82366975 121.41516109 31.83841133 123.32008743 C31.85582947 125.97401785 31.84134631 128.62593591 31.81860352 131.27978516 C31.83614182 132.45176956 31.83614182 132.45176956 31.85403442 133.64743042 C31.78419097 137.65260344 31.34100756 139.49174622 28.83946228 142.68173218 C26.1875 144.6875 26.1875 144.6875 23.125 145.1875 C19.90874253 144.64005192 18.4799309 143.9799309 16.1875 141.6875 C15.02969026 138.21407079 15.04159529 135.47349738 15.01391602 131.80786133 C15.007229 131.11135971 15.00054199 130.41485809 14.99365234 129.69725037 C14.97960331 128.18313658 14.96770878 126.66900164 14.95770454 125.15485573 C14.94122628 122.74319121 14.91797612 120.33167828 14.89280701 117.92008972 C14.82228928 111.06212029 14.76250944 104.20408275 14.71069336 97.34594727 C14.67849316 93.14726053 14.63710373 88.9487391 14.59049797 84.75018883 C14.57469653 83.16415136 14.56227715 81.57807581 14.55359077 79.99198341 C14.42437127 56.69716007 11.88454391 36.92601395 -5.0390625 19.37890625 C-17.67857509 7.56565155 -32.69575421 2.15906791 -49.8125 1.6875 C-67.74885113 2.37600167 -83.49414227 9.56850834 -95.75 22.625 C-110.09422361 39.64891374 -112.12112567 58.67719815 -112.05632973 80.11604881 C-112.05061568 82.55102444 -112.06008114 84.9855448 -112.0735321 87.42048645 C-112.11020794 94.32893517 -112.12911691 101.23720786 -112.11791992 108.14575195 C-112.11206955 112.40492883 -112.13029602 116.6634389 -112.16380882 120.92247963 C-112.17174072 122.53436736 -112.17051586 124.14632817 -112.15978432 125.75819969 C-112.14545155 128.00254904 -112.16171893 130.24478137 -112.18481445 132.48901367 C-112.18544388 133.76201828 -112.1860733 135.03502289 -112.1867218 136.34660339 C-112.97882355 140.57546603 -114.46854043 142.06326523 -117.8125 144.6875 C-121.31662619 145.25960224 -123.03654484 145.12790698 -126.125 143.375 C-129.6623264 139.8376736 -128.97338224 135.26963675 -128.98950195 130.59863281 C-128.99607315 129.77372849 -129.00264435 128.94882416 -129.00941467 128.09892273 C-129.02915421 125.3628225 -129.04081868 122.62677749 -129.05078125 119.890625 C-129.05485678 118.95226555 -129.0589323 118.0139061 -129.06313133 117.04711151 C-129.08400602 112.06965861 -129.09829537 107.09223331 -129.10766602 102.11474609 C-129.11866584 97.00770056 -129.15298649 91.90109854 -129.19283772 86.79420853 C-129.21918473 82.84069088 -129.22737431 78.88727536 -129.23094749 74.93367767 C-129.23577577 73.05368849 -129.24728032 71.17370268 -129.26598549 69.29380035 C-129.40236921 54.66434499 -128.01210005 41.47163951 -121 28.3125 C-120.48614746 27.31609497 -120.48614746 27.31609497 -119.96191406 26.29956055 C-117.12870632 20.95498179 -113.77229435 16.26011966 -109.8125 11.6875 C-109.21566406 10.89472656 -108.61882812 10.10195313 -108.00390625 9.28515625 C-99.80385931 -0.43504199 -88.55237258 -6.85794315 -76.8125 -11.3125 C-75.70132813 -11.745625 -74.59015625 -12.17875 -73.4453125 -12.625 C-48.83411721 -20.66130867 -20.61845553 -15.28926471 0 0 Z " fill="#C62727" transform="translate(264.8125,39.3125)"/>
<path d="M0 0 C0.98613281 0.17208984 0.98613281 0.17208984 1.9921875 0.34765625 C2.65476562 0.43917969 3.31734375 0.53070313 4 0.625 C6.71523483 1.76676193 7.41898837 2.80988341 8.8671875 5.41015625 C9.30379109 8.47247521 9.26030865 11.51277387 9.23828125 14.6015625 C9.25567972 16.45247566 9.2732639 18.30338707 9.29101562 20.15429688 C9.30103507 23.05480404 9.30469785 25.95518924 9.30297852 28.85571289 C9.32279956 44.29895 10.35116385 57.37914779 21.52734375 69.16015625 C30.2388647 77.09776076 40.27190701 79.96049192 51.90625 79.7890625 C63.05224224 78.72282853 72.92214337 73.42111839 80.0546875 64.84765625 C88.46203401 52.30645476 88.51950501 40.48269698 88.3671875 25.91015625 C88.32845972 22.14911716 88.32221492 18.3900791 88.3359375 14.62890625 C88.31631958 13.77679565 88.29670166 12.92468506 88.27648926 12.04675293 C88.29584814 7.63581937 88.44597526 5.94556285 91.26708984 2.35961914 C93.8671875 0.41015625 93.8671875 0.41015625 96 0 C96.98613281 0.17208984 96.98613281 0.17208984 97.9921875 0.34765625 C98.65476562 0.43917969 99.31734375 0.53070313 100 0.625 C102.71499459 1.76666091 103.41517953 2.81154884 104.8671875 5.41015625 C105.34143326 8.48476215 105.33521808 11.53800157 105.3359375 14.64453125 C105.34735779 16.0107663 105.34735779 16.0107663 105.35900879 17.40460205 C105.36981466 19.33790353 105.37266092 21.2712634 105.36816406 23.20458984 C105.36720447 26.10879717 105.40854995 29.01024544 105.453125 31.9140625 C105.5597052 48.36888101 102.90235182 61.88144174 92.8671875 75.41015625 C92.1246875 76.46203125 91.3821875 77.51390625 90.6171875 78.59765625 C83.22681565 86.15599109 74.79199702 90.94768739 64.8671875 94.41015625 C64.18140625 94.65636719 63.495625 94.90257812 62.7890625 95.15625 C49.87098469 99.09137874 34.65673666 96.46647319 22.94873047 90.34790039 C7.63799832 81.90551418 -1.33199149 69.51818558 -6.15673828 52.87890625 C-7.35077685 48.04664517 -7.47380802 43.35763629 -7.50390625 38.3984375 C-7.51293472 37.46718552 -7.5219632 36.53593353 -7.53126526 35.57646179 C-7.54569051 33.62091249 -7.55463512 31.66531577 -7.55834961 29.7097168 C-7.57032163 26.72037587 -7.6196448 23.73305169 -7.66992188 20.74414062 C-7.67937922 18.83724959 -7.68661754 16.93034598 -7.69140625 15.0234375 C-7.71093857 14.13376785 -7.73047089 13.24409821 -7.75059509 12.32746887 C-7.71781164 7.82510791 -7.58936624 5.99476038 -4.73120117 2.33496094 C-2.1328125 0.41015625 -2.1328125 0.41015625 0 0 Z " fill="#F57F17" transform="translate(319.1328125,295.58984375)"/>
</svg>
